<mxfile host="app.diagrams.net" modified="2024-06-15T12:42:36.785Z" agent="Mozilla/5.0 (Windows NT 10.0; Win64; x64) AppleWebKit/537.36 (KHTML, like Gecko) Chrome/123.0.0.0 Safari/537.36 OPR/109.0.0.0" version="24.5.4" etag="9ztaYF4vcjtV6CYl1H8E" type="github">
  <diagram name="PÃ¡gina-1" id="ucSNOuLt7uAlN2f_DHUe">
    <mxGraphModel>
      <root>
        <mxCell id="0" />
        <mxCell id="1" parent="0" />
      </root>
    </mxGraphModel>
  </diagram>
</mxfile>
